{
    "asset" : {
        "generator" : "Khronos glTF Blender I/O v1.3.48",
        "version" : "2.0"
    },
    "scene" : 0,
    "scenes" : [
        {
            "name" : "Scene",
            "nodes" : [
                0,
                1,
                2,
                4,
                5,
                6,
                7
            ]
        }
    ],
    "nodes" : [
        {
            "mesh" : 0,
            "name" : "Sphere.001",
            "scale" : [
                38.31528091430664,
                37.33818817138672,
                37.09294128417969
            ],
            "translation" : [
                -5.644920825958252,
                8.062911987304688,
                36.03178024291992
            ]
        },
        {
            "mesh" : 1,
            "name" : "Sphere.002",
            "translation" : [
                -6.362569808959961,
                8.702266693115234,
                -9.53592586517334
            ]
        },
        {
            "name" : "Sun",
            "rotation" : [
                0.539105236530304,
                0.737209141254425,
                -0.1940755546092987,
                0.35808226466178894
            ],
            "scale" : [
                2.119999885559082,
                1,
                2.759999990463257
            ],
            "translation" : [
                14.717952728271484,
                14.66201400756836,
                2.6376757621765137
            ]
        },
        {
            "name" : "Camera.001",
            "rotation" : [
                0.22561541199684143,
                0.678399920463562,
                -0.6595601439476013,
                0.23205982148647308
            ],
            "scale" : [
                164.90650939941406,
                7.784578323364258,
                96.13712310791016
            ],
            "translation" : [
                1.3969230651855469,
                1.3543109893798828,
                3.061614513397217
            ]
        },
        {
            "children" : [
                3
            ],
            "name" : "Empty"
        },
        {
            "name" : "BezierCircle",
            "scale" : [
                28.481626510620117,
                13.028324127197266,
                33.82073974609375
            ],
            "translation" : [
                -5.644920825958252,
                8.062911987304688,
                0.45297956466674805
            ]
        },
        {
            "name" : "Light",
            "rotation" : [
                0.16907575726509094,
                0.7558803558349609,
                -0.27217137813568115,
                0.570947527885437
            ],
            "translation" : [
                4.076245307922363,
                5.903861999511719,
                -1.0054539442062378
            ]
        },
        {
            "name" : "Camera",
            "rotation" : [
                0.483536034822464,
                0.33687159419059753,
                -0.20870360732078552,
                0.7804827094078064
            ],
            "translation" : [
                7.358891487121582,
                4.958309173583984,
                6.925790786743164
            ]
        }
    ],
    "animations" : [
        {
            "channels" : [
                {
                    "sampler" : 0,
                    "target" : {
                        "node" : 1,
                        "path" : "translation"
                    }
                },
                {
                    "sampler" : 1,
                    "target" : {
                        "node" : 1,
                        "path" : "rotation"
                    }
                },
                {
                    "sampler" : 2,
                    "target" : {
                        "node" : 1,
                        "path" : "scale"
                    }
                }
            ],
            "name" : "Sphere.002Action",
            "samplers" : [
                {
                    "input" : 8,
                    "interpolation" : "LINEAR",
                    "output" : 9
                },
                {
                    "input" : 8,
                    "interpolation" : "LINEAR",
                    "output" : 10
                },
                {
                    "input" : 8,
                    "interpolation" : "LINEAR",
                    "output" : 11
                }
            ]
        },
        {
            "channels" : [
                {
                    "sampler" : 0,
                    "target" : {
                        "node" : 4,
                        "path" : "translation"
                    }
                },
                {
                    "sampler" : 1,
                    "target" : {
                        "node" : 4,
                        "path" : "rotation"
                    }
                },
                {
                    "sampler" : 2,
                    "target" : {
                        "node" : 4,
                        "path" : "scale"
                    }
                }
            ],
            "name" : "EmptyAction.002",
            "samplers" : [
                {
                    "input" : 12,
                    "interpolation" : "LINEAR",
                    "output" : 13
                },
                {
                    "input" : 12,
                    "interpolation" : "LINEAR",
                    "output" : 14
                },
                {
                    "input" : 12,
                    "interpolation" : "LINEAR",
                    "output" : 15
                }
            ]
        }
    ],
    "materials" : [
        {
            "doubleSided" : true,
            "emissiveFactor" : [
                0,
                0,
                0
            ],
            "name" : "Material.001",
            "pbrMetallicRoughness" : {
                "baseColorTexture" : {
                    "index" : 0,
                    "texCoord" : 0
                },
                "metallicFactor" : 0,
                "roughnessFactor" : 0.5
            }
        },
        {
            "doubleSided" : true,
            "emissiveFactor" : [
                0,
                0,
                0
            ],
            "name" : "Moon",
            "pbrMetallicRoughness" : {
                "baseColorTexture" : {
                    "index" : 1,
                    "texCoord" : 0
                },
                "metallicFactor" : 0,
                "roughnessFactor" : 0.5
            }
        }
    ],
    "meshes" : [
        {
            "name" : "Sphere.001",
            "primitives" : [
                {
                    "attributes" : {
                        "POSITION" : 0,
                        "NORMAL" : 1,
                        "TEXCOORD_0" : 2
                    },
                    "indices" : 3,
                    "material" : 0
                }
            ]
        },
        {
            "name" : "Sphere.002",
            "primitives" : [
                {
                    "attributes" : {
                        "POSITION" : 4,
                        "NORMAL" : 5,
                        "TEXCOORD_0" : 6
                    },
                    "indices" : 7,
                    "material" : 1
                }
            ]
        }
    ],
    "textures" : [
        {
            "source" : 0
        },
        {
            "source" : 1
        }
    ],
    "images" : [
        {
            "bufferView" : 4,
            "mimeType" : "image/jpeg",
            "name" : "earth"
        },
        {
            "bufferView" : 9,
            "mimeType" : "image/jpeg",
            "name" : "moon"
        }
    ],
    "accessors" : [
        {
            "bufferView" : 0,
            "componentType" : 5126,
            "count" : 499,
            "max" : [
                1.000000238418579,
                1,
                1.0000003576278687
            ],
            "min" : [
                -0.9999998211860657,
                -1,
                -1
            ],
            "type" : "VEC3"
        },
        {
            "bufferView" : 1,
            "componentType" : 5126,
            "count" : 499,
            "type" : "VEC3"
        },
        {
            "bufferView" : 2,
            "componentType" : 5126,
            "count" : 499,
            "type" : "VEC2"
        },
        {
            "bufferView" : 3,
            "componentType" : 5123,
            "count" : 2880,
            "type" : "SCALAR"
        },
        {
            "bufferView" : 5,
            "componentType" : 5126,
            "count" : 512,
            "max" : [
                6.035496711730957,
                5.147920608520508,
                -21.121807098388672
            ],
            "min" : [
                -6.03549337387085,
                -4.765497207641602,
                -32.796539306640625
            ],
            "type" : "VEC3"
        },
        {
            "bufferView" : 6,
            "componentType" : 5126,
            "count" : 512,
            "type" : "VEC3"
        },
        {
            "bufferView" : 7,
            "componentType" : 5126,
            "count" : 512,
            "type" : "VEC2"
        },
        {
            "bufferView" : 8,
            "componentType" : 5123,
            "count" : 2880,
            "type" : "SCALAR"
        },
        {
            "bufferView" : 10,
            "componentType" : 5126,
            "count" : 265,
            "max" : [
                11.916666666666666
            ],
            "min" : [
                0.9166666666666666
            ],
            "type" : "SCALAR"
        },
        {
            "bufferView" : 11,
            "componentType" : 5126,
            "count" : 265,
            "type" : "VEC3"
        },
        {
            "bufferView" : 12,
            "componentType" : 5126,
            "count" : 265,
            "type" : "VEC4"
        },
        {
            "bufferView" : 13,
            "componentType" : 5126,
            "count" : 265,
            "type" : "VEC3"
        },
        {
            "bufferView" : 14,
            "componentType" : 5126,
            "count" : 259,
            "max" : [
                11.75
            ],
            "min" : [
                1
            ],
            "type" : "SCALAR"
        },
        {
            "bufferView" : 15,
            "componentType" : 5126,
            "count" : 259,
            "type" : "VEC3"
        },
        {
            "bufferView" : 16,
            "componentType" : 5126,
            "count" : 259,
            "type" : "VEC4"
        },
        {
            "bufferView" : 17,
            "componentType" : 5126,
            "count" : 259,
            "type" : "VEC3"
        }
    ],
    "bufferViews" : [
        {
            "buffer" : 0,
            "byteLength" : 5988,
            "byteOffset" : 0
        },
        {
            "buffer" : 0,
            "byteLength" : 5988,
            "byteOffset" : 5988
        },
        {
            "buffer" : 0,
            "byteLength" : 3992,
            "byteOffset" : 11976
        },
        {
            "buffer" : 0,
            "byteLength" : 5760,
            "byteOffset" : 15968
        },
        {
            "buffer" : 0,
            "byteLength" : 19066,
            "byteOffset" : 21728
        },
        {
            "buffer" : 0,
            "byteLength" : 6144,
            "byteOffset" : 40796
        },
        {
            "buffer" : 0,
            "byteLength" : 6144,
            "byteOffset" : 46940
        },
        {
            "buffer" : 0,
            "byteLength" : 4096,
            "byteOffset" : 53084
        },
        {
            "buffer" : 0,
            "byteLength" : 5760,
            "byteOffset" : 57180
        },
        {
            "buffer" : 0,
            "byteLength" : 171519,
            "byteOffset" : 62940
        },
        {
            "buffer" : 0,
            "byteLength" : 1060,
            "byteOffset" : 234460
        },
        {
            "buffer" : 0,
            "byteLength" : 3180,
            "byteOffset" : 235520
        },
        {
            "buffer" : 0,
            "byteLength" : 4240,
            "byteOffset" : 238700
        },
        {
            "buffer" : 0,
            "byteLength" : 3180,
            "byteOffset" : 242940
        },
        {
            "buffer" : 0,
            "byteLength" : 1036,
            "byteOffset" : 246120
        },
        {
            "buffer" : 0,
            "byteLength" : 3108,
            "byteOffset" : 247156
        },
        {
            "buffer" : 0,
            "byteLength" : 4144,
            "byteOffset" : 250264
        },
        {
            "buffer" : 0,
            "byteLength" : 3108,
            "byteOffset" : 254408
        }
    ],
    "buffers" : [
        {
            "byteLength" : 257516,
            "uri" : "data:application/octet-stream;base64,"
        }
    ]
}
