{
    "asset" : {
        "generator" : "Khronos glTF Blender I/O v1.3.48",
        "version" : "2.0"
    },
    "scene" : 0,
    "scenes" : [
        {
            "name" : "Scene",
            "nodes" : [
                0,
                1,
                2
            ]
        }
    ],
    "nodes" : [
        {
            "mesh" : 0,
            "name" : "Cube",
            "scale" : [
                1.2602595090866089,
                1.2602595090866089,
                1.2602595090866089
            ]
        },
        {
            "name" : "Light",
            "rotation" : [
                0.16907575726509094,
                0.7558803558349609,
                -0.27217137813568115,
                0.570947527885437
            ],
            "translation" : [
                4.076245307922363,
                5.903861999511719,
                -1.0054539442062378
            ]
        },
        {
            "name" : "Camera",
            "rotation" : [
                0.483536034822464,
                0.33687159419059753,
                -0.20870360732078552,
                0.7804827094078064
            ],
            "translation" : [
                7.358891487121582,
                4.958309173583984,
                6.925790786743164
            ]
        }
    ],
    "animations" : [
        {
            "channels" : [
                {
                    "sampler" : 0,
                    "target" : {
                        "node" : 0,
                        "path" : "translation"
                    }
                },
                {
                    "sampler" : 1,
                    "target" : {
                        "node" : 0,
                        "path" : "rotation"
                    }
                },
                {
                    "sampler" : 2,
                    "target" : {
                        "node" : 0,
                        "path" : "scale"
                    }
                }
            ],
            "name" : "CubeAction",
            "samplers" : [
                {
                    "input" : 15,
                    "interpolation" : "LINEAR",
                    "output" : 16
                },
                {
                    "input" : 15,
                    "interpolation" : "LINEAR",
                    "output" : 17
                },
                {
                    "input" : 15,
                    "interpolation" : "LINEAR",
                    "output" : 18
                }
            ]
        }
    ],
    "materials" : [
        {
            "doubleSided" : true,
            "emissiveFactor" : [
                0,
                0,
                0
            ],
            "name" : "Wood",
            "pbrMetallicRoughness" : {
                "metallicFactor" : 0,
                "roughnessFactor" : 0
            }
        },
        {
            "doubleSided" : true,
            "emissiveFactor" : [
                0,
                0,
                0
            ],
            "name" : "Deck",
            "pbrMetallicRoughness" : {
                "metallicFactor" : 0,
                "roughnessFactor" : 0.5
            }
        },
        {
            "doubleSided" : true,
            "emissiveFactor" : [
                0,
                0,
                0
            ],
            "name" : "Sail",
            "pbrMetallicRoughness" : {
                "metallicFactor" : 0,
                "roughnessFactor" : 0.5
            }
        }
    ],
    "meshes" : [
        {
            "name" : "Cube.001",
            "primitives" : [
                {
                    "attributes" : {
                        "POSITION" : 0,
                        "NORMAL" : 1,
                        "TEXCOORD_0" : 2,
                        "COLOR_0" : 3
                    },
                    "indices" : 4,
                    "material" : 0
                },
                {
                    "attributes" : {
                        "POSITION" : 5,
                        "NORMAL" : 6,
                        "TEXCOORD_0" : 7,
                        "COLOR_0" : 8
                    },
                    "indices" : 9,
                    "material" : 1
                },
                {
                    "attributes" : {
                        "POSITION" : 10,
                        "NORMAL" : 11,
                        "TEXCOORD_0" : 12,
                        "COLOR_0" : 13
                    },
                    "indices" : 14,
                    "material" : 2
                }
            ]
        }
    ],
    "accessors" : [
        {
            "bufferView" : 0,
            "componentType" : 5126,
            "count" : 21061,
            "max" : [
                10.8519926071167,
                52.972877502441406,
                36.087554931640625
            ],
            "min" : [
                -11.16152572631836,
                -6.0220417976379395,
                -43.54867172241211
            ],
            "type" : "VEC3"
        },
        {
            "bufferView" : 1,
            "componentType" : 5126,
            "count" : 21061,
            "type" : "VEC3"
        },
        {
            "bufferView" : 2,
            "componentType" : 5126,
            "count" : 21061,
            "type" : "VEC2"
        },
        {
            "bufferView" : 3,
            "componentType" : 5126,
            "count" : 21061,
            "type" : "VEC4"
        },
        {
            "bufferView" : 4,
            "componentType" : 5123,
            "count" : 22836,
            "type" : "SCALAR"
        },
        {
            "bufferView" : 5,
            "componentType" : 5126,
            "count" : 86,
            "max" : [
                4.902682781219482,
                6.038197040557861,
                2.043544292449951
            ],
            "min" : [
                -4.901187896728516,
                2.9735641479492188,
                -18.707141876220703
            ],
            "type" : "VEC3"
        },
        {
            "bufferView" : 6,
            "componentType" : 5126,
            "count" : 86,
            "type" : "VEC3"
        },
        {
            "bufferView" : 7,
            "componentType" : 5126,
            "count" : 86,
            "type" : "VEC2"
        },
        {
            "bufferView" : 8,
            "componentType" : 5126,
            "count" : 86,
            "type" : "VEC4"
        },
        {
            "bufferView" : 9,
            "componentType" : 5123,
            "count" : 96,
            "type" : "SCALAR"
        },
        {
            "bufferView" : 10,
            "componentType" : 5126,
            "count" : 422,
            "max" : [
                18.58495330810547,
                51.78432083129883,
                8.404626846313477
            ],
            "min" : [
                -17.521013259887695,
                11.027965545654297,
                -32.52991485595703
            ],
            "type" : "VEC3"
        },
        {
            "bufferView" : 11,
            "componentType" : 5126,
            "count" : 422,
            "type" : "VEC3"
        },
        {
            "bufferView" : 12,
            "componentType" : 5126,
            "count" : 422,
            "type" : "VEC2"
        },
        {
            "bufferView" : 13,
            "componentType" : 5126,
            "count" : 422,
            "type" : "VEC4"
        },
        {
            "bufferView" : 14,
            "componentType" : 5123,
            "count" : 540,
            "type" : "SCALAR"
        },
        {
            "bufferView" : 15,
            "componentType" : 5126,
            "count" : 138,
            "max" : [
                6.333333333333333
            ],
            "min" : [
                0.625
            ],
            "type" : "SCALAR"
        },
        {
            "bufferView" : 16,
            "componentType" : 5126,
            "count" : 138,
            "type" : "VEC3"
        },
        {
            "bufferView" : 17,
            "componentType" : 5126,
            "count" : 138,
            "type" : "VEC4"
        },
        {
            "bufferView" : 18,
            "componentType" : 5126,
            "count" : 138,
            "type" : "VEC3"
        }
    ],
    "bufferViews" : [
        {
            "buffer" : 0,
            "byteLength" : 252732,
            "byteOffset" : 0
        },
        {
            "buffer" : 0,
            "byteLength" : 252732,
            "byteOffset" : 252732
        },
        {
            "buffer" : 0,
            "byteLength" : 168488,
            "byteOffset" : 505464
        },
        {
            "buffer" : 0,
            "byteLength" : 336976,
            "byteOffset" : 673952
        },
        {
            "buffer" : 0,
            "byteLength" : 45672,
            "byteOffset" : 1010928
        },
        {
            "buffer" : 0,
            "byteLength" : 1032,
            "byteOffset" : 1056600
        },
        {
            "buffer" : 0,
            "byteLength" : 1032,
            "byteOffset" : 1057632
        },
        {
            "buffer" : 0,
            "byteLength" : 688,
            "byteOffset" : 1058664
        },
        {
            "buffer" : 0,
            "byteLength" : 1376,
            "byteOffset" : 1059352
        },
        {
            "buffer" : 0,
            "byteLength" : 192,
            "byteOffset" : 1060728
        },
        {
            "buffer" : 0,
            "byteLength" : 5064,
            "byteOffset" : 1060920
        },
        {
            "buffer" : 0,
            "byteLength" : 5064,
            "byteOffset" : 1065984
        },
        {
            "buffer" : 0,
            "byteLength" : 3376,
            "byteOffset" : 1071048
        },
        {
            "buffer" : 0,
            "byteLength" : 6752,
            "byteOffset" : 1074424
        },
        {
            "buffer" : 0,
            "byteLength" : 1080,
            "byteOffset" : 1081176
        },
        {
            "buffer" : 0,
            "byteLength" : 552,
            "byteOffset" : 1082256
        },
        {
            "buffer" : 0,
            "byteLength" : 1656,
            "byteOffset" : 1082808
        },
        {
            "buffer" : 0,
            "byteLength" : 2208,
            "byteOffset" : 1084464
        },
        {
            "buffer" : 0,
            "byteLength" : 1656,
            "byteOffset" : 1086672
        }
    ],
    "buffers" : [
        {
            "byteLength" : 1088328,
            "uri" : "data:application/octet-stream;base64,"
        }
    ]
}
