{
    "asset" : {
        "generator" : "Khronos glTF Blender I/O v1.3.48",
        "version" : "2.0"
    },
    "scene" : 0,
    "scenes" : [
        {
            "name" : "Scene",
            "nodes" : [
                0,
                1,
                2,
                3
            ]
        }
    ],
    "nodes" : [
        {
            "mesh" : 0,
            "name" : "Cube",
            "rotation" : [
                0,
                0.7071068286895752,
                0,
                -0.7071068286895752
            ],
            "scale" : [
                8.836799621582031,
                8.836799621582031,
                8.836799621582031
            ],
            "translation" : [
                14.385844230651855,
                -1.9322590827941895,
                7.227262020111084
            ]
        },
        {
            "name" : "Light",
            "rotation" : [
                0.27217137813568115,
                -0.570947527885437,
                0.16907578706741333,
                0.7558802962303162
            ],
            "scale" : [
                1.7328824996948242,
                1.7328823804855347,
                1.7328827381134033
            ],
            "translation" : [
                7.322188377380371,
                8.298439025878906,
                8.969594955444336
            ]
        },
        {
            "name" : "Camera",
            "rotation" : [
                0.20870356261730194,
                -0.7804827094078064,
                0.4835360646247864,
                0.33687150478363037
            ],
            "scale" : [
                1.7328824996948242,
                1.7328823804855347,
                1.7328824996948242
            ],
            "translation" : [
                1.6337487697601318,
                6.65990686416626,
                -4.774321556091309
            ]
        },
        {
            "mesh" : 1,
            "name" : "Screen Shot 2021-01-11 at 1.37.28 PM",
            "rotation" : [
                -0.710799515247345,
                0,
                0,
                -0.7033946514129639
            ],
            "scale" : [
                36.95896911621094,
                1.7328824996948242,
                42.37883758544922
            ],
            "translation" : [
                6.406707286834717,
                -2.2166266441345215,
                23.87880516052246
            ]
        }
    ],
    "materials" : [
        {
            "doubleSided" : true,
            "emissiveFactor" : [
                0,
                0,
                0
            ],
            "name" : "Material",
            "pbrMetallicRoughness" : {
                "baseColorTexture" : {
                    "index" : 0,
                    "texCoord" : 0
                },
                "metallicFactor" : 0,
                "roughnessFactor" : 0.4000000059604645
            }
        },
        {
            "alphaMode" : "BLEND",
            "doubleSided" : true,
            "emissiveFactor" : [
                0,
                0,
                0
            ],
            "name" : "Screen Shot 2021-01-11 at 1.37.28 PM",
            "pbrMetallicRoughness" : {
                "baseColorTexture" : {
                    "index" : 1,
                    "texCoord" : 0
                },
                "metallicFactor" : 0,
                "roughnessFactor" : 0.5
            }
        }
    ],
    "meshes" : [
        {
            "name" : "Cube",
            "primitives" : [
                {
                    "attributes" : {
                        "POSITION" : 0,
                        "NORMAL" : 1,
                        "TEXCOORD_0" : 2
                    },
                    "indices" : 3,
                    "material" : 0
                }
            ]
        },
        {
            "name" : "Screen Shot 2021-01-11 at 1.37.28 PM",
            "primitives" : [
                {
                    "attributes" : {
                        "POSITION" : 4,
                        "NORMAL" : 5,
                        "TEXCOORD_0" : 6
                    },
                    "indices" : 7,
                    "material" : 1
                }
            ]
        }
    ],
    "textures" : [
        {
            "source" : 0
        },
        {
            "source" : 1
        }
    ],
    "images" : [
        {
            "bufferView" : 4,
            "mimeType" : "image/jpeg",
            "name" : "9Qx8v"
        },
        {
            "bufferView" : 9,
            "mimeType" : "image/png",
            "name" : "Screen Shot 2021-01-11 at 1.37.28 PM"
        }
    ],
    "accessors" : [
        {
            "bufferView" : 0,
            "componentType" : 5126,
            "count" : 683,
            "max" : [
                2.4042136669158936,
                3.1359691619873047,
                5.116691589355469
            ],
            "min" : [
                -2.066335916519165,
                -3.1359691619873047,
                -5.297801494598389
            ],
            "type" : "VEC3"
        },
        {
            "bufferView" : 1,
            "componentType" : 5126,
            "count" : 683,
            "type" : "VEC3"
        },
        {
            "bufferView" : 2,
            "componentType" : 5126,
            "count" : 683,
            "type" : "VEC2"
        },
        {
            "bufferView" : 3,
            "componentType" : 5123,
            "count" : 1284,
            "type" : "SCALAR"
        },
        {
            "bufferView" : 5,
            "componentType" : 5126,
            "count" : 4,
            "max" : [
                0.8033333420753479,
                0,
                0.5
            ],
            "min" : [
                -0.8033333420753479,
                0,
                -0.5
            ],
            "type" : "VEC3"
        },
        {
            "bufferView" : 6,
            "componentType" : 5126,
            "count" : 4,
            "type" : "VEC3"
        },
        {
            "bufferView" : 7,
            "componentType" : 5126,
            "count" : 4,
            "type" : "VEC2"
        },
        {
            "bufferView" : 8,
            "componentType" : 5123,
            "count" : 6,
            "type" : "SCALAR"
        }
    ],
    "bufferViews" : [
        {
            "buffer" : 0,
            "byteLength" : 8196,
            "byteOffset" : 0
        },
        {
            "buffer" : 0,
            "byteLength" : 8196,
            "byteOffset" : 8196
        },
        {
            "buffer" : 0,
            "byteLength" : 5464,
            "byteOffset" : 16392
        },
        {
            "buffer" : 0,
            "byteLength" : 2568,
            "byteOffset" : 21856
        },
        {
            "buffer" : 0,
            "byteLength" : 90902,
            "byteOffset" : 24424
        },
        {
            "buffer" : 0,
            "byteLength" : 48,
            "byteOffset" : 115328
        },
        {
            "buffer" : 0,
            "byteLength" : 48,
            "byteOffset" : 115376
        },
        {
            "buffer" : 0,
            "byteLength" : 32,
            "byteOffset" : 115424
        },
        {
            "buffer" : 0,
            "byteLength" : 12,
            "byteOffset" : 115456
        },
        {
            "buffer" : 0,
            "byteLength" : 945096,
            "byteOffset" : 115468
        }
    ],
    "buffers" : [
        {
            "byteLength" : 1060564,
            "uri" : "data:application/octet-stream;base64,"
        }
    ]
}
